<svg width="76" height="72" fill="none" xmlns="http://www.w3.org/2000/svg"><path d="M71.6 47.7h-66A4.2 4.2 0 0 0 1.5 52v3.5c0 2.4 1.9 4.3 4.1 4.3h1v1.1A10 10 0 0 0 16 71h44.7c5.4 0 9.7-4.5 9.7-10.1v-1.1h.9c2.3 0 4-1.9 4-4.3V52a4 4 0 0 0-3.8-4.3Zm-4 13.2c0 3.9-3 7-6.7 7H16.1a7 7 0 0 1-6.7-7v-1.1h58.3v1.1Zm5.2-5.4c0 .7-.6 1.3-1.2 1.3h-66c-.8 0-1.3-.6-1.3-1.3V52c0-.7.6-1.3 1.2-1.3h66c.7 0 1.2.6 1.2 1.3v3.5ZM17.1 39.4l5.5 4.1 5.3-4.1 5.3 4.1 5.3-4.1 5.4 4.1 5.3-4.1 5.3 4.1 5.4-4.1 5.4 4.1 6.2-4.7-1.7-2.5-4.5 3.4-5.4-4.1-5.4 4.1-5.3-4.1-5.3 4.1-5.4-4.1-5.3 4.1-5.3-4.1-5.3 4.1-5.5-4.1-5.3 4.1-4.5-3.4-1.7 2.5 6.2 4.7 5.3-4.1ZM9.5 32.5h61V29.4C70 13.7 55.9 1 38.6 1S7.3 13.7 6.6 29.5v1.2l.1 1.8h3ZM38.5 4c15.7 0 28.6 11.3 29.2 25.5H9.5C10.1 15.4 23 4 38.5 4Z" fill="#83B3D3"/><path d="M38.6 18.3a2 2 0 0 0 1.9-2 2 2 0 0 0-2-2 2 2 0 0 0-1.8 2c0 1.1.8 2 1.9 2ZM30.8 13.2a2 2 0 0 0 1.9-2 2 2 0 0 0-2-2 2 2 0 0 0-1.8 2c0 1.1.8 2 1.9 2ZM46.3 13.2a2 2 0 0 0 2-2 2 2 0 0 0-2-2 2 2 0 0 0-1.9 2c0 1.1.9 2 2 2Z" fill="#83B3D3"/></svg>