<svg width="77" height="72" fill="none" xmlns="http://www.w3.org/2000/svg"><path d="M31.1 65h16V41.2h-16V65Zm3-20.9h10v18h-10v-18Z" fill="#83B3D3"/><path d="m74.4 39.3 2.1-2.1-10-9.9V0H52.7v13.6L38.9 0 1.5 37.2l2.1 2.1 7.8-7.8v37.6h-4V72h64.2v-2.9h-5.1V31.5l7.9 7.8ZM63.5 69.1H14.4V28.5L38.9 4.1l24.6 24.4v40.6Zm0-44.7-7.9-7.9V2.9h8v21.5Z" fill="#83B3D3"/><path d="M31.3 27.1c0 4.3 3.5 7.7 7.8 7.7s7.8-3.5 7.8-7.7c0-4.3-3.5-7.7-7.8-7.7a7.7 7.7 0 0 0-7.8 7.7Zm7.9-5a5 5 0 0 1 5 4.9 5 5 0 0 1-5 4.9 5 5 0 0 1-5-4.9 5 5 0 0 1 5-4.9ZM21.5 41.2h-3v3.9h3v-3.9ZM27.4 41.2h-3v3.9h3v-3.9ZM21.5 47.2h-3v3.9h3v-3.9ZM27.4 47.2h-3v3.9h3v-3.9ZM53.5 41.2h-3v3.9h3v-3.9ZM59.4 41.2h-3v3.9h3v-3.9ZM53.5 47.2h-3v3.9h3v-3.9ZM59.4 47.2h-3v3.9h3v-3.9Z" fill="#83B3D3"/></svg>